<svg xmlns="http://www.w3.org/2000/svg" width="260" height="80.157" viewBox="0 0 260 80.157">
  <g id="BullTimeHorizontal_WHITE" transform="translate(-12.897 -0.668)">
    <g id="horizontal_white" transform="translate(12.897 0.668)">
      <g id="bulllock_1_">
        <path id="Path_32" data-name="Path 32" d="M1226.528,773.321H1189v-21.4a16.467,16.467,0,0,1,16.418-16.418h4.691a16.467,16.467,0,0,1,16.418,16.418Zm-31.078-6.45h24.628V751.918a9.96,9.96,0,0,0-9.968-9.968h-4.691a9.96,9.96,0,0,0-9.968,9.968Z" transform="translate(-1181.963 -735.5)" fill="#fff"/>
        <path id="Subtraction_13_1_" d="M1202.507,835.511h0L1177,821.145V783.5h51.6v37.645l-26.094,14.366Zm-11.083-30.9h0l3.988,2.287,1.876,2.639,1.994,7.154,1.466,1.231,1.994.235,1.994-.235,1.466-1.231,1.994-7.154,1.877-2.639,3.987-2.287-4.574.586,10.789-5.336-7.212-6.919,2.639,5.746-6.8,1.818-6.215-.645-6.216.645-6.8-1.818,2.639-5.746-7.212,6.919,10.789,5.336Z" transform="translate(-1177 -755.354)" fill="#fff"/>
      </g>
      <g id="text" transform="translate(59.812 28.165)">
        <path id="bull" d="M471.929,1770.814H369.9V1732.7H471.929ZM400.743,1737.8v18.881c0,6.45,5.629,9.851,11.258,9.851s11.317-3.4,11.317-9.851V1737.8h-7.036v18.764a3.021,3.021,0,0,1-1.349,2.58,5.325,5.325,0,0,1-5.864,0,3.075,3.075,0,0,1-1.407-2.58V1737.8Zm48.259,0v28.322h17.533v-6.509H456.273V1737.8H449Zm-21.637,0v28.322h17.591v-6.509H434.694V1737.8h-7.33Zm-51.542,0v28.322h13.252c5.336,0,8.8-3.518,8.8-8.972a6.182,6.182,0,0,0-3.4-5.805,6.77,6.77,0,0,0,2.228-4.867,8.646,8.646,0,0,0-8.62-8.678H375.822Zm12.783,21.872h-5.746v-4.808h5.746a2,2,0,0,1,1.642.762,2.461,2.461,0,0,1,.528,1.7,2.163,2.163,0,0,1-2.17,2.345Zm-1.173-10.73h-4.574v-4.632h4.515a2.165,2.165,0,0,1,2.17,2.17v.176a2.12,2.12,0,0,1-1.994,2.287Z" transform="translate(-369.9 -1732.7)" fill="#fff"/>
      </g>
    </g>
    <g id="Group_34" data-name="Group 34" transform="translate(179.429 33.934)">
      <path id="Path_33" data-name="Path 33" d="M296.9,63.933V57.6h20.7v6.333h-6.8V85.394h-7.036V63.933Z" transform="translate(-296.9 -57.483)" fill="#fff"/>
      <path id="Path_34" data-name="Path 34" d="M349.832,79.079v6.274H335.7V79.079h3.518V63.716h-3.284V57.5H349.48v6.216H346.2V79.079Z" transform="translate(-312.949 -57.441)" fill="#fff"/>
      <path id="Path_35" data-name="Path 35" d="M392.228,57.4h2.521V85.311h-7.271V72.88L381.556,79.1h-.821l-5.864-6.216V85.311H367.6V57.4h2.639l10.907,12.079Z" transform="translate(-326.143 -57.4)" fill="#fff"/>
      <path id="Path_36" data-name="Path 36" d="M443.457,63.891h-10.32V67.82h9.441v6.333h-9.441V79.02h10.672v6.333H426.1V57.5h17.357Z" transform="translate(-350.34 -57.441)" fill="#fff"/>
    </g>
  </g>
</svg>
