<svg width="32" height="46" viewBox="0 0 32 46" fill="none" xmlns="http://www.w3.org/2000/svg">
<path d="M26.8223 21.5471H4.23438V9.35378C4.23438 4.19617 8.66761 0 14.1166 0H16.9401C22.3891 0 26.8223 4.19617 26.8223 9.35378V21.5471ZM8.11668 17.8724H22.94V9.35378C22.94 6.22227 20.2485 3.6747 16.9401 3.6747H14.1166C10.8082 3.6747 8.11668 6.22227 8.11668 9.35378V17.8724Z" fill="white"/>
<path d="M15.3492 45.6661L0 37.4782V16.0347H31.0584V37.4782L15.3492 45.6661ZM8.6893 28.0376L11.0963 29.3304L12.2328 30.8471L13.4398 34.9293L14.3363 35.6242L15.5292 35.7444L16.7221 35.6242L17.6186 34.9293L18.8256 30.8471L19.9621 29.3304L22.3691 28.0376L19.6268 28.3716L26.1138 25.3317L21.7762 21.3797L23.3573 24.6602L19.2774 25.7058L15.5257 25.3283L11.774 25.7058L7.69402 24.6602L9.27517 21.3797L4.94111 25.3317L11.4281 28.3716L8.6893 28.0376Z" fill="white"/>
</svg>
