<svg xmlns="http://www.w3.org/2000/svg" xmlns:xlink="http://www.w3.org/1999/xlink" width="597.506" height="928.172" viewBox="0 0 597.506 928.172">
  <defs>
    <clipPath id="clip-path">
      <rect id="Rectangle_53" data-name="Rectangle 53" width="597.506" height="928.172" fill="#8a8a8a"/>
    </clipPath>
  </defs>
  <g id="Group_52" data-name="Group 52" opacity="0.2">
    <g id="Group_51" data-name="Group 51" clip-path="url(#clip-path)">
      <path id="Path_41" data-name="Path 41" d="M446.55,437.945H12V190.116C12,85.287,97.287,0,202.116,0h54.319C361.263,0,446.55,85.287,446.55,190.116ZM86.688,363.257H371.862V190.116A115.557,115.557,0,0,0,256.434,74.688H202.116A115.557,115.557,0,0,0,86.688,190.116Z" transform="translate(69.478)" fill="#8a8a8a"/>
      <path id="Path_42" data-name="Path 42" d="M295.29,650.259h0L0,483.84V48H597.506V483.84Zm-128.124-358.3h0l46.307,26.277,21.863,30.826,23.221,82.972L275.8,446.157l22.95,2.444,22.95-2.444,17.246-14.123,23.221-82.972,21.863-30.826,46.307-26.277-52.757,6.79,124.8-61.788-83.447-80.324,30.419,66.676-78.491,21.252-72.176-7.673-72.176,7.673-78.491-21.252,30.419-66.676L95.058,236.961l124.8,61.788Z" transform="translate(0 277.913)" fill="#8a8a8a"/>
    </g>
  </g>
</svg>
