<svg width="346" height="395" viewBox="0 0 346 395" fill="none" xmlns="http://www.w3.org/2000/svg">
<path d="M115.132 394.142L81.7716 326.491C40.9495 313.072 14.1618 272.659 17.8633 229.64L29.3298 96.4436C31.5884 70.2124 44.8954 46.0219 65.835 30.0705C86.7746 14.1192 113.63 7.7116 139.517 12.5026L266.5 35.9893C310.835 44.1932 343.012 82.8657 343.012 127.952V251.678C343.012 278.071 331.781 303.36 312.202 321.058C292.619 338.758 266.329 347.389 240.072 344.724L155.527 336.161L115.132 394.142ZM122.561 19.7848C104.148 19.7848 86.0296 25.7919 71.1884 37.0965C52.2247 51.5431 40.178 73.4486 38.1344 97.2004L26.6678 230.397C23.2638 269.935 48.2965 307.041 86.1916 318.625L88.0173 319.185L116.436 376.815L151.248 326.85L240.961 335.934C264.727 338.34 288.547 330.531 306.277 314.503C324.007 298.478 334.178 275.58 334.178 251.678V127.952C334.178 87.1266 305.04 52.1056 264.892 44.6791L137.909 21.1923C132.815 20.2471 127.676 19.7848 122.561 19.7848Z" fill="#231F20"/>
<path d="M346 317.371C346 337.469 329.706 353.763 309.608 353.763C289.51 353.763 273.217 337.469 273.217 317.371C273.217 297.273 289.51 280.979 309.608 280.979C329.706 280.979 346 297.273 346 317.371Z" fill="#59A8DA"/>
<path d="M100.244 50.5979C100.244 78.272 77.8081 100.707 50.134 100.707C22.4599 100.707 0.0244141 78.272 0.0244141 50.5979C0.0244141 22.9238 22.4599 0.488281 50.134 0.488281C77.8081 0.488281 100.244 22.9238 100.244 50.5979Z" fill="#59A8DA"/>
<path d="M20.2861 71.3463V57.6712C20.2861 50.5039 21.1489 44.6263 22.8804 40.0356C24.6089 35.4448 27.5624 31.546 31.7439 28.3393C35.9253 25.1325 40.625 22.9947 45.843 21.9258V32.8682C42.1327 35.006 40.0273 37.8653 39.5267 41.449H45.843V71.3463H20.2861ZM54.4267 71.3463V57.6712C54.4267 50.5039 55.2895 44.6263 57.021 40.0356C58.7495 35.4448 61.6883 31.546 65.8374 28.3393C69.9894 25.1325 74.7038 22.9947 79.9836 21.9258V32.8682C76.2733 35.006 74.1679 37.8653 73.6673 41.449H79.9836V71.3463H54.4267Z" fill="black"/>
<path d="M308.291 301.905V311.837C308.291 316.997 307.675 321.255 306.441 324.612C305.209 327.966 303.073 330.799 300.038 333.104C297 335.41 293.565 336.973 289.729 337.796V329.781C292.468 328.276 294.021 326.22 294.386 323.618H289.729V301.905H308.291ZM333.085 301.905V311.837C333.085 316.997 332.469 321.255 331.235 324.612C330.004 327.966 327.869 330.799 324.833 333.104C321.794 335.41 318.359 336.973 314.523 337.796V329.781C317.217 328.276 318.746 326.22 319.112 323.618H314.523V301.905H333.085Z" fill="black"/>
</svg>
