<svg width="251" height="327" viewBox="0 0 251 327" fill="none" xmlns="http://www.w3.org/2000/svg">
<path d="M133.765 326.073L94.1518 274.136C66.4438 273.289 40.4634 260.652 22.6697 239.294C4.53986 217.539 -3.14698 189.046 1.57572 161.116L8.0946 122.574C16.4937 72.9157 62.3825 37.6226 112.51 42.2104L159.367 46.5017C205.953 50.7688 242.834 87.6811 247.059 134.273L250.167 168.522C252.605 195.41 243.613 222.306 225.494 242.316C207.851 261.802 182.861 273.329 156.646 274.145L133.765 326.073ZM103.728 48.4439C60.2899 48.4439 22.0017 80.1336 14.6378 123.68L8.11894 162.222C3.71919 188.238 10.8796 214.78 27.7685 235.047C44.6685 255.329 69.4898 267.173 95.8684 267.538L97.4809 267.56L132.223 313.11L152.293 267.573L154.434 267.553C179.583 267.332 203.69 256.513 220.577 237.861C237.7 218.948 245.862 194.536 243.557 169.124L240.452 134.873C236.514 91.4703 202.159 57.0864 158.761 53.1091L111.906 48.8177C109.165 48.5678 106.435 48.4439 103.728 48.4439Z" fill="#231F20"/>
<path d="M246.694 245.4C246.694 260.561 234.402 272.853 219.241 272.853C204.079 272.853 191.787 260.561 191.787 245.4C191.787 230.238 204.079 217.946 219.241 217.946C234.402 217.946 246.694 230.238 246.694 245.4Z" fill="#59A8DA"/>
<path d="M86.516 38.2175C86.516 59.0062 69.6625 75.8598 48.8737 75.8598C28.085 75.8598 11.2314 59.0062 11.2314 38.2175C11.2314 17.4287 28.085 0.575195 48.8737 0.575195C69.6625 0.575195 86.516 17.4287 86.516 38.2175Z" fill="#59A8DA"/>
<path d="M26.4502 53.0583V42.7878C26.4502 37.4014 27.0983 32.9862 28.399 29.5399C29.6975 26.0913 31.9161 23.1603 35.0572 20.7536C38.1983 18.3469 41.7287 16.7388 45.6507 15.9336V24.1557C42.8613 25.7595 41.2797 27.9096 40.9037 30.6016H45.6507V53.0583H26.4502ZM52.0966 53.0583V42.7878C52.0966 37.4014 52.7447 32.9862 54.0454 29.5399C55.3439 26.0913 57.5515 23.1603 60.6682 20.7536C63.7872 18.3469 67.3287 16.7388 71.2971 15.9336V24.1557C68.5077 25.7595 66.9261 27.9096 66.5501 30.6016H71.2971V53.0583H52.0966Z" fill="black"/>
<path d="M216.889 232.56V240.052C216.889 243.945 216.424 247.155 215.493 249.689C214.564 252.219 212.954 254.357 210.663 256.096C208.37 257.835 205.779 259.014 202.887 259.635V253.589C204.953 252.453 206.123 250.903 206.399 248.939H202.887V232.56H216.889ZM235.593 232.56V240.052C235.593 243.945 235.128 247.155 234.198 249.689C233.268 252.219 231.658 254.357 229.367 256.096C227.075 257.835 224.484 259.014 221.59 259.635V253.589C223.622 252.453 224.776 250.903 225.052 248.939H221.59V232.56H235.593Z" fill="black"/>
</svg>
