<svg width="400" height="339" viewBox="0 0 400 339" fill="none" xmlns="http://www.w3.org/2000/svg">
<g filter="url(#filter0_d_471_3621)">
<path d="M271.081 334.042L239.901 293.163L89.3089 301.224C63.9495 302.571 39.8422 292.366 23.1807 273.195C6.5166 254.025 -0.243847 228.732 4.63326 203.806L26.0353 94.4224C34.0324 53.5505 71.3386 25.2283 112.883 28.5724L310.528 44.4379C350.544 47.6506 382.079 79.013 385.506 119.011L392.486 200.431C394.395 222.701 387.366 244.255 372.696 261.12C358.024 277.985 337.655 287.93 315.333 289.125L290.285 290.465L271.081 334.042ZM243.57 285.227L269.288 318.944L285.127 283.001L314.921 281.406C335.133 280.324 353.579 271.32 366.863 256.047C380.147 240.777 386.511 221.258 384.785 201.09L377.805 119.671C374.701 83.4521 346.147 55.0526 309.91 52.1413L112.265 36.2784C74.6724 33.2692 40.8624 58.8965 33.6202 95.909L12.2207 205.29C7.80222 227.861 13.9237 250.765 29.0136 268.125C44.1035 285.485 65.9256 294.729 88.8967 293.505L243.57 285.227Z" fill="#231F20"/>
</g>
<path d="M98.8645 43.8424C98.8645 68.0553 79.235 87.6848 55.0221 87.6848C30.8092 87.6848 11.1797 68.0553 11.1797 43.8424C11.1797 19.6295 30.8092 0 55.0221 0C79.235 0 98.8645 19.6295 98.8645 43.8424Z" fill="#59A8DA"/>
<path d="M399.215 253.827C399.215 271.537 384.857 285.894 367.147 285.894C349.437 285.894 335.08 271.537 335.08 253.827C335.08 236.118 349.437 221.76 367.147 221.76C384.857 221.76 399.215 236.118 399.215 253.827Z" fill="#59A8DA"/>
<path d="M25.582 63.0159V51.0512C25.582 44.7802 26.3369 39.6352 27.8518 35.6212C29.3642 31.6046 31.9483 28.1934 35.6068 25.3877C39.2652 22.5821 43.3772 20.7116 47.9425 19.7764V29.3502C44.6963 31.2207 42.8541 33.7224 42.4162 36.8578H47.9425V63.0159H25.582ZM55.4527 63.0159V51.0512C55.4527 44.7802 56.2076 39.6352 57.7225 35.6212C59.2348 31.6046 61.8061 28.1934 65.4362 25.3877C69.0689 22.5821 73.1937 20.7116 77.8132 19.7764V29.3502C74.5669 31.2207 72.7248 33.7224 72.2868 36.8578H77.8132V63.0159H55.4527Z" fill="black"/>
<path d="M367.569 237.813V246.565C367.569 251.112 367.026 254.862 365.941 257.82C364.853 260.777 362.971 263.274 360.297 265.305C357.619 267.337 354.593 268.714 351.214 269.438V262.377C353.628 261.05 354.994 259.239 355.316 256.946H351.214V237.813H367.569ZM389.419 237.813V246.565C389.419 251.112 388.874 254.862 387.787 257.82C386.701 260.777 384.821 263.274 382.145 265.305C379.467 267.337 376.443 268.714 373.06 269.438V262.377C375.434 261.05 376.784 259.239 377.104 256.946H373.06V237.813H389.419Z" fill="black"/>
<defs>
<filter id="filter0_d_471_3621" x="0.670674" y="28.3047" width="394.536" height="310.564" filterUnits="userSpaceOnUse" color-interpolation-filters="sRGB">
<feFlood flood-opacity="0" result="BackgroundImageFix"/>
<feColorMatrix in="SourceAlpha" type="matrix" values="0 0 0 0 0 0 0 0 0 0 0 0 0 0 0 0 0 0 127 0" result="hardAlpha"/>
<feOffset dy="2.41331"/>
<feGaussianBlur stdDeviation="1.20666"/>
<feComposite in2="hardAlpha" operator="out"/>
<feColorMatrix type="matrix" values="0 0 0 0 0 0 0 0 0 0 0 0 0 0 0 0 0 0 0.160784 0"/>
<feBlend mode="normal" in2="BackgroundImageFix" result="effect1_dropShadow_471_3621"/>
<feBlend mode="normal" in="SourceGraphic" in2="effect1_dropShadow_471_3621" result="shape"/>
</filter>
</defs>
</svg>
